<svg xmlns="http://www.w3.org/2000/svg" viewBox="0 0 24 24" width="144" height="144" style="fill: rgb(52, 152, 219);">
    <path d="M15.5,4c-1.726,0-3.317,0.673-4.5,1.812v3.825l0.314-0.794C11.999,7.116,13.642,6,15.5,6c2.481,0,4.5,2.019,4.5,4.5&#9;S17.981,15,15.5,15c-1.436,0-2.797-0.694-3.657-1.876c-0.001-0.001-0.623-0.814-0.711-0.94C10.199,10.816,8.654,10,7,10&#9;c-2.757,0-5,2.243-5,5s2.243,5,5,5c1.102,0,2.147-0.378,3-1.019v-3.308l-0.284,0.603C9.223,17.323,8.157,18,7,18&#9;c-1.654,0-3-1.346-3-3s1.346-3,3-3c0.992,0,1.919,0.49,2.481,1.314c0.077,0.112,0.758,1.005,0.758,1.005&#9;C11.46,15.998,13.427,17,15.5,17c3.584,0,6.5-2.916,6.5-6.5S19.084,4,15.5,4z"/>
</svg>